<svg width="512" height="512" viewBox="0 0 512 512" fill="none"
  xmlns="http://www.w3.org/2000/svg">
  <g clip-path="url(#clip0_1_2)">
    <rect x="2.2087e-06" y="-5.42069e-06" width="512" height="512" rx="256" fill="white"/>
    <path d="M382.494 309C382.494 329.667 370.994 350 347.994 370C325.327 390 297.661 406 264.994 418C232.661 429.667 201.827 435.5 172.494 435.5C159.827 435.5 144.994 427.833 127.994 412.5C110.994 396.833 102.494 384 102.494 374C102.494 368.333 103.661 363.833 105.994 360.5C108.661 357.167 111.661 355.5 114.994 355.5C118.327 355.5 125.661 358.333 136.994 364C148.661 369.333 157.327 372 162.994 372C168.994 372 174.827 371.5 180.494 370.5C172.161 367.167 163.827 361.333 155.494 353C147.161 344.667 142.994 336.667 142.994 329C142.994 325.667 148.494 301.5 159.494 256.5C170.494 211.167 176.327 172.5 176.994 140.5C170.994 134.833 165.494 128 160.494 120C155.827 111.667 153.494 105.5 153.494 101.5C153.494 92.1667 160.827 84.6667 175.494 79C190.161 73.3333 208.494 70.5 230.494 70.5C277.161 70.5 314.494 76.6666 342.494 89C370.827 101.333 384.994 121 384.994 148C384.994 165 377.827 182.333 363.494 200C349.161 217.667 330.327 233.833 306.994 248.5L311.994 250C331.994 255.333 348.661 263.333 361.994 274C375.661 284.333 382.494 296 382.494 309ZM293.994 134.5C283.661 134.5 259.327 138.167 220.994 145.5C232.994 158.833 238.994 170 238.994 179C238.994 187.667 236.161 203.833 230.494 227.5C235.827 223.5 245.327 217.667 258.994 210C272.661 202.333 281.161 197.333 284.494 195C288.161 192.333 292.994 188.5 298.994 183.5C310.327 174.5 315.994 164.167 315.994 152.5C315.994 140.5 308.661 134.5 293.994 134.5ZM319.494 307C319.494 300.333 309.827 294.667 290.494 290C271.494 285 255.661 282.5 242.994 282.5C235.994 282.5 228.494 277.333 220.494 267C205.494 328.667 196.494 362.5 193.494 368.5C221.494 362.5 249.494 353.333 277.494 341C305.494 328.667 319.494 317.333 319.494 307Z" fill="#04346B"/>
    <path d="M347.994 370L344.713 366.227L344.7 366.239L344.686 366.251L347.994 370ZM264.994 418L266.691 422.703L266.705 422.698L266.718 422.693L264.994 418ZM127.994 412.5L124.606 416.177L124.625 416.195L124.645 416.213L127.994 412.5ZM105.994 360.5L102.09 357.377L101.99 357.502L101.898 357.633L105.994 360.5ZM136.994 364L134.758 368.472L134.836 368.511L134.915 368.547L136.994 364ZM180.494 370.5L181.363 375.424L198.643 372.374L182.351 365.858L180.494 370.5ZM155.494 353L159.03 349.464L159.03 349.464L155.494 353ZM159.494 256.5L164.351 257.687L164.353 257.679L159.494 256.5ZM176.994 140.5L181.993 140.604L182.039 138.387L180.427 136.865L176.994 140.5ZM160.494 120L156.132 122.443L156.19 122.548L156.254 122.65L160.494 120ZM342.494 89L340.479 93.5757L340.489 93.5801L340.499 93.5845L342.494 89ZM363.494 200L359.611 196.85L359.611 196.85L363.494 200ZM306.994 248.5L304.333 244.267L295.012 250.126L305.557 253.289L306.994 248.5ZM311.994 250L310.557 254.789L310.631 254.811L310.706 254.831L311.994 250ZM361.994 274L358.871 277.904L358.924 277.947L358.979 277.988L361.994 274ZM220.994 145.5L220.055 140.589L211.347 142.255L217.278 148.845L220.994 145.5ZM230.494 227.5L225.632 226.336L222.403 239.818L233.494 231.5L230.494 227.5ZM284.494 195L287.361 199.096L287.398 199.07L287.435 199.044L284.494 195ZM298.994 183.5L295.885 179.584L295.839 179.621L295.793 179.659L298.994 183.5ZM290.494 290L289.222 294.835L289.271 294.848L289.321 294.86L290.494 290ZM220.494 267L224.448 263.939L218.09 255.727L215.636 265.818L220.494 267ZM193.494 368.5L189.022 366.264L184.37 375.569L194.542 373.389L193.494 368.5ZM377.494 309C377.494 327.643 367.149 346.718 344.713 366.227L351.275 373.773C374.84 353.282 387.494 331.691 387.494 309H377.494ZM344.686 366.251C322.549 385.783 295.442 401.489 263.27 413.307L266.718 422.693C299.88 410.511 328.106 394.217 351.302 373.749L344.686 366.251ZM263.297 413.297C231.416 424.8 201.159 430.5 172.494 430.5V440.5C202.496 440.5 233.905 434.533 266.691 422.703L263.297 413.297ZM172.494 430.5C161.737 430.5 148.091 423.893 131.343 408.787L124.645 416.213C141.898 431.774 157.918 440.5 172.494 440.5V430.5ZM131.383 408.823C123.046 401.141 116.984 394.323 113.038 388.364C109.059 382.356 107.494 377.621 107.494 374H97.4941C97.4941 380.379 100.18 387.06 104.701 393.886C109.254 400.761 115.942 408.192 124.606 416.177L131.383 408.823ZM107.494 374C107.494 368.968 108.535 365.589 110.09 363.367L101.898 357.633C98.7862 362.078 97.4941 367.698 97.4941 374H107.494ZM109.898 363.623C111.906 361.114 113.59 360.5 114.994 360.5V350.5C109.732 350.5 105.416 353.219 102.09 357.377L109.898 363.623ZM114.994 360.5C115.638 360.5 117.528 360.873 121.192 362.289C124.65 363.625 129.159 365.672 134.758 368.472L139.23 359.528C133.496 356.661 128.672 354.458 124.796 352.961C121.127 351.543 117.684 350.5 114.994 350.5V360.5ZM134.915 368.547C146.612 373.895 156.148 377 162.994 377V367C158.507 367 150.709 364.772 139.073 359.453L134.915 368.547ZM162.994 377C169.273 377 175.398 376.477 181.363 375.424L179.625 365.576C174.257 366.523 168.715 367 162.994 367V377ZM182.351 365.858C174.81 362.841 167.027 357.462 159.03 349.464L151.959 356.536C160.628 365.205 169.512 371.492 178.637 375.142L182.351 365.858ZM159.03 349.464C151.141 341.576 147.994 334.777 147.994 329H137.994C137.994 338.557 143.18 347.757 151.959 356.536L159.03 349.464ZM147.994 329C147.994 329.034 148.013 328.659 148.188 327.568C148.346 326.589 148.59 325.264 148.928 323.574C149.603 320.201 150.623 315.51 151.994 309.485C154.736 297.441 158.853 280.179 164.351 257.687L154.637 255.313C149.135 277.821 145.003 295.143 142.244 307.265C140.865 313.323 139.823 318.112 139.122 321.613C138.773 323.361 138.502 324.823 138.316 325.979C138.147 327.023 137.994 328.133 137.994 329H147.994ZM164.353 257.679C175.404 212.138 181.316 173.09 181.993 140.604L171.995 140.396C171.339 171.91 165.585 210.195 154.635 255.321L164.353 257.679ZM180.427 136.865C174.778 131.529 169.54 125.039 164.734 117.35L156.254 122.65C161.448 130.961 167.211 138.138 173.561 144.135L180.427 136.865ZM164.857 117.557C162.596 113.52 160.97 110.129 159.921 107.356C158.847 104.519 158.494 102.629 158.494 101.5H148.494C148.494 104.371 149.307 107.564 150.568 110.894C151.851 114.287 153.726 118.147 156.132 122.443L164.857 117.557ZM158.494 101.5C158.494 95.4489 163.094 89.1513 177.296 83.664L173.692 74.336C158.561 80.182 148.494 88.8844 148.494 101.5H158.494ZM177.296 83.664C191.208 78.2889 208.883 75.5 230.494 75.5V65.5C208.106 65.5 189.113 68.3777 173.692 74.336L177.296 83.664ZM230.494 75.5C276.796 75.5 313.358 81.6298 340.479 93.5757L344.51 84.4242C315.63 71.7035 277.526 65.5 230.494 65.5V75.5ZM340.499 93.5845C354.064 99.4895 363.88 106.993 370.312 115.922C376.713 124.808 379.994 135.424 379.994 148H389.994C389.994 133.576 386.192 120.858 378.426 110.078C370.692 99.3402 359.258 90.8438 344.49 84.4155L340.499 93.5845ZM379.994 148C379.994 163.517 373.467 179.772 359.611 196.85L367.377 203.15C382.188 184.894 389.994 166.483 389.994 148H379.994ZM359.611 196.85C345.687 214.012 327.298 229.832 304.333 244.267L309.655 252.733C333.357 237.835 352.634 221.321 367.377 203.15L359.611 196.85ZM305.557 253.289L310.557 254.789L313.431 245.211L308.431 243.711L305.557 253.289ZM310.706 254.831C330.176 260.023 346.18 267.752 358.871 277.904L365.118 270.096C351.141 258.915 333.813 250.644 313.282 245.169L310.706 254.831ZM358.979 277.988C371.828 287.703 377.494 298.039 377.494 309H387.494C387.494 293.961 379.494 280.963 365.01 270.012L358.979 277.988ZM293.994 129.5C283.084 129.5 258.231 133.286 220.055 140.589L221.934 150.411C260.424 143.047 284.238 139.5 293.994 139.5V129.5ZM217.278 148.845C229.154 162.041 233.994 171.988 233.994 179H243.994C243.994 168.012 236.834 155.625 224.711 142.155L217.278 148.845ZM233.994 179C233.994 186.988 231.315 202.598 225.632 226.336L235.357 228.664C241.006 205.068 243.994 188.345 243.994 179H233.994ZM233.494 231.5C238.537 227.718 247.779 222.024 261.44 214.361L256.548 205.639C242.876 213.309 233.118 219.282 227.494 223.5L233.494 231.5ZM261.44 214.361C275.031 206.736 283.779 201.604 287.361 199.096L281.627 190.904C278.542 193.063 270.29 197.93 256.548 205.639L261.44 214.361ZM287.435 199.044C291.232 196.283 296.161 192.369 302.195 187.341L295.793 179.659C289.827 184.631 285.09 188.384 281.553 190.956L287.435 199.044ZM302.104 187.416C314.315 177.718 320.994 166.054 320.994 152.5H310.994C310.994 162.279 306.34 171.282 295.885 179.584L302.104 187.416ZM320.994 152.5C320.994 145.435 318.787 139.324 313.66 135.13C308.726 131.093 301.882 129.5 293.994 129.5V139.5C300.773 139.5 304.929 140.907 307.328 142.87C309.535 144.676 310.994 147.565 310.994 152.5H320.994ZM324.494 307C324.494 300.926 320.062 296.537 314.773 293.437C309.311 290.235 301.502 287.514 291.667 285.14L289.321 294.86C298.819 297.153 305.511 299.599 309.716 302.063C314.093 304.63 314.494 306.408 314.494 307H324.494ZM291.767 285.165C272.553 280.108 256.258 277.5 242.994 277.5V287.5C255.064 287.5 270.436 289.892 289.222 294.835L291.767 285.165ZM242.994 277.5C238.467 277.5 232.268 274.04 224.448 263.939L216.541 270.061C224.72 280.626 233.522 287.5 242.994 287.5V277.5ZM215.636 265.818C208.139 296.64 202.148 320.474 197.662 337.34C195.418 345.776 193.559 352.435 192.082 357.339C190.558 362.398 189.547 365.214 189.022 366.264L197.966 370.736C198.942 368.786 200.181 365.123 201.657 360.223C203.179 355.169 205.07 348.391 207.326 339.91C211.84 322.942 217.85 299.027 225.352 268.182L215.636 265.818ZM194.542 373.389C222.896 367.313 251.22 358.037 279.51 345.576L275.479 336.424C247.769 348.63 220.092 357.687 192.446 363.611L194.542 373.389ZM279.51 345.576C293.675 339.336 304.638 333.209 312.14 327.136C319.478 321.196 324.494 314.495 324.494 307H314.494C314.494 309.839 312.511 313.97 305.848 319.364C299.35 324.624 289.313 330.33 275.479 336.424L279.51 345.576Z" fill="#FAB304"/>
  </g>
  <rect x="8.5" y="8.49999" width="495" height="495" rx="247.5" stroke="#04346B" stroke-width="17"/>
  <defs>
    <clipPath id="clip0_1_2">
      <rect x="2.2087e-06" y="-5.42069e-06" width="512" height="512" rx="256" fill="white"/>
    </clipPath>
  </defs>
</svg>
