<svg width="637" height="629" viewBox="0 0 637 629" fill="none"
  xmlns="http://www.w3.org/2000/svg">
  <mask id="path-1-inside-1_31_2" fill="white">
    <path d="M62.0001 58L564 58C569.523 58 574 62.4772 574 68V570H72.0001C66.4772 570 62.0001 565.523 62.0001 560L62.0001 58Z"/>
  </mask>
  <path d="M62.0001 58L564 58C569.523 58 574 62.4772 574 68V570H72.0001C66.4772 570 62.0001 565.523 62.0001 560L62.0001 58Z" fill="#0F172A"/>
  <mask id="path-2-inside-2_31_2" fill="white">
    <path d="M311.127 3.07107C315.032 -0.834175 321.364 -0.834175 325.269 3.07107L636.396 314.198L325.269 625.325C321.364 629.23 315.032 629.23 311.127 625.325L-4.80413e-05 314.198L311.127 3.07107Z"/>
  </mask>
  <path d="M311.127 3.07107C315.032 -0.834175 321.364 -0.834175 325.269 3.07107L636.396 314.198L325.269 625.325C321.364 629.23 315.032 629.23 311.127 625.325L-4.80413e-05 314.198L311.127 3.07107Z" fill="#0F172A" stroke="#f59e0b" stroke-width="50" mask="url(#path-2-inside-2_31_2)"/>
  <path d="M433.345 362C433.345 380.6 422.995 398.9 402.295 416.9C381.895 434.9 356.995 449.3 327.595 460.1C298.495 470.6 270.745 475.85 244.345 475.85C232.945 475.85 219.595 468.95 204.295 455.15C188.995 441.05 181.345 429.5 181.345 420.5C181.345 415.4 182.395 411.35 184.495 408.35C186.895 405.35 189.595 403.85 192.595 403.85C195.595 403.85 202.195 406.4 212.395 411.5C222.895 416.3 230.695 418.7 235.795 418.7C241.195 418.7 246.445 418.25 251.545 417.35C244.045 414.35 236.545 409.1 229.045 401.6C221.545 394.1 217.795 386.9 217.795 380C217.795 377 222.745 355.25 232.645 314.75C242.545 273.95 247.795 239.15 248.395 210.35C242.995 205.25 238.045 199.1 233.545 191.9C229.345 184.4 227.245 178.85 227.245 175.25C227.245 166.85 233.845 160.1 247.045 155C260.245 149.9 276.745 147.35 296.545 147.35C338.545 147.35 372.145 152.9 397.345 164C422.845 175.1 435.595 192.8 435.595 217.1C435.595 232.4 429.145 248 416.245 263.9C403.345 279.8 386.395 294.35 365.395 307.55L369.895 308.9C387.895 313.7 402.895 320.9 414.895 330.5C427.195 339.8 433.345 350.3 433.345 362ZM353.695 204.95C344.395 204.95 322.495 208.25 287.995 214.85C298.795 226.85 304.195 236.9 304.195 245C304.195 252.8 301.645 267.35 296.545 288.65C301.345 285.05 309.895 279.8 322.195 272.9C334.495 266 342.145 261.5 345.145 259.4C348.445 257 352.795 253.55 358.195 249.05C368.395 240.95 373.495 231.65 373.495 221.15C373.495 210.35 366.895 204.95 353.695 204.95ZM376.645 360.2C376.645 354.2 367.945 349.1 350.545 344.9C333.445 340.4 319.195 338.15 307.795 338.15C301.495 338.15 294.745 333.5 287.545 324.2C274.045 379.7 265.945 410.15 263.245 415.55C288.445 410.15 313.645 401.9 338.845 390.8C364.045 379.7 376.645 369.5 376.645 360.2Z" fill="#f59e0b"/>
  <path d="M62.0001 58L564 58C569.523 58 574 62.4772 574 68V570H72.0001C66.4772 570 62.0001 565.523 62.0001 560L62.0001 58Z" stroke="#f59e0b" stroke-width="50" mask="url(#path-1-inside-1_31_2)"/>
</svg>
